<?xml version="1.0" encoding="UTF-8" standalone="no"?>
<!DOCTYPE svg PUBLIC "-//W3C//DTD SVG 1.1//EN" "http://www.w3.org/Graphics/SVG/1.1/DTD/svg11.dtd">
<!-- Created with Vectornator (http://vectornator.io/) -->
<svg height="841.0mm" stroke-miterlimit="10" style="fill-rule:nonzero;clip-rule:evenodd;stroke-linecap:round;stroke-linejoin:round;" version="1.1" viewBox="0 0 3370.82 2384.24" width="1189.0mm" xml:space="preserve" xmlns="http://www.w3.org/2000/svg" xmlns:vectornator="http://vectornator.io" xmlns:xlink="http://www.w3.org/1999/xlink">
<defs/>
<g id="Sketch" opacity="0.3" vectornator:layerName="Sketch" visibility="hidden">
<path d="M709.289 785.024C709.289 941.993 698.015 1100.4 708.122 1257.28C712.398 1323.66 717.41 1399.19 757.124 1450.92C899.088 1635.84 1171.43 1544.89 1355.65 1569.33C1419.88 1577.85 1548.25 1624.51 1595.99 1551.22C1628.87 1500.75 1640.41 1429.57 1651.99 1368.73C1679.7 1223.12 1690.08 1066.87 1683.49 917.367C1682.13 886.578 1680.9 851.554 1668.32 824.03C1643.31 769.28 1532.37 755.196 1486.32 750.197C1307.15 730.749 1127.77 751.59 948.464 751.59C894.421 751.59 842.175 754.136 788.625 759.948C768.168 762.169 739.042 760.527 724.456 780.845C710.44 800.369 715.122 836.671 715.122 860.251" fill="none" opacity="1" stroke="#ff0000" stroke-linecap="round" stroke-linejoin="round" stroke-width="10" vectornator:layerName="Curve 1"/>
<path d="M845.758 733.781C833.47 704.435 861.966 650.416 887.76 646.017C943.756 636.465 973.198 692.623 976.43 750.498C977.518 769.993 975.903 800.267 958.929 810.401" fill="none" opacity="1" stroke="#ff0000" stroke-linecap="round" stroke-linejoin="round" stroke-width="41.0722" vectornator:layerName="Curve 2"/>
<path d="M1114.1 729.602C1114.1 710.558 1117.34 691.549 1123.43 673.878C1170.73 536.742 1377.95 706.25 1254.11 804.829" fill="none" opacity="1" stroke="#ff0000" stroke-linecap="round" stroke-linejoin="round" stroke-width="41.0722" vectornator:layerName="Curve 3"/>
<path d="M1387.11 728.209C1378.75 698.244 1393.19 639.468 1423.28 633.479C1443.01 629.552 1461.18 637.372 1479.28 646.017C1532.69 671.526 1558.27 715.901 1528.28 783.932C1520.62 801.313 1499.78 836.87 1480.45 836.87" fill="none" opacity="1" stroke="#ff0000" stroke-linecap="round" stroke-linejoin="round" stroke-width="41.0722" vectornator:layerName="Curve 4"/>
<path d="M982.299 833.086C992.679 815.995 968.295 833.782 979.965 833.782C986.489 833.782 979.361 819.851 976.465 819.851C973.656 819.851 979.169 833.323 982.299 832.389C988.168 830.637 984.234 814.095 977.632 815.672C973.235 816.722 977.818 838.196 984.632 836.568C995.208 834.043 988.426 807.103 976.465 815.672C971.504 819.226 976.755 842.083 983.465 840.747C993.326 838.785 994.281 807.658 979.965 810.1C973.402 811.219 972.21 849.697 982.299 833.086Z" fill="none" opacity="1" stroke="#ff0000" stroke-linecap="round" stroke-linejoin="round" stroke-width="10" vectornator:layerName="Curve 5"/>
<path d="M1275.14 827.513C1279.85 825.372 1279.08 804.837 1271.64 811.493C1267.31 815.376 1270.96 839.759 1278.64 835.175C1286.31 830.6 1275.33 807.899 1269.31 811.493C1262.73 815.421 1264.65 839.817 1273.98 837.961C1285.57 835.653 1282.24 799.302 1269.31 805.92C1261.13 810.106 1259.9 841.459 1270.48 839.354C1280.82 837.295 1285.4 803.867 1271.64 805.92C1263.6 807.121 1257.47 835.54 1275.14 827.513Z" fill="none" opacity="1" stroke="#ff0000" stroke-linecap="round" stroke-linejoin="round" stroke-width="10" vectornator:layerName="Curve 6"/>
<path d="M1502.07 858.858C1507.46 854.911 1510.71 845.683 1503.82 840.747C1501.49 839.082 1499.67 838.026 1496.82 840.747C1490.28 846.991 1500.79 870.837 1506.15 864.43C1513.11 856.115 1505.42 830.822 1494.48 835.175C1484.21 839.264 1488.72 869.757 1501.48 867.216C1514.87 864.551 1504.33 829.398 1489.82 835.175C1477.17 840.21 1489.28 873.353 1500.32 865.823C1511.81 857.979 1502.55 832.641 1489.82 835.175C1481.76 836.778 1485.97 863.943 1496.82 857.465C1502.17 854.266 1499.81 832.842 1490.98 840.747C1481.5 849.244 1485.34 871.104 1502.07 858.858Z" fill="none" opacity="1" stroke="#ff0000" stroke-linecap="round" stroke-linejoin="round" stroke-width="10" vectornator:layerName="Curve 7"/>
<path d="M804.959 927.119C804.959 943.916 810.15 960.403 810.793 977.27C815.475 1100.28 836.607 1220.91 843.46 1343.65C845.961 1388.44 851.026 1458.47 888.962 1484.35C918.397 1504.44 953.166 1501.26 985.799 1503.86C1068.33 1510.43 1151.7 1502.56 1234.31 1508.04C1307.72 1512.91 1401.2 1523.04 1473.48 1503.86C1497.1 1497.59 1528.64 1503.02 1545.82 1477.39C1569.01 1442.78 1569.26 1390.33 1571.49 1347.83C1576.66 1249.05 1583.15 1148.75 1583.15 1049.71C1583.15 996.395 1592.14 938.834 1539.99 920.153C1519.27 912.735 1497.02 916.163 1475.82 914.581C1429.81 911.147 1383.15 913.188 1336.98 913.188C1172.93 913.188 1009.46 931.298 845.794 931.298" fill="none" opacity="1" stroke="#ff0000" stroke-linecap="round" stroke-linejoin="round" stroke-width="10" vectornator:layerName="Curve 8"/>
<path d="M895.962 1003.74C924.283 1026.28 974.356 1021.34 921.63 1058.07C914.499 1063.04 908.001 1068.99 900.629 1073.39" fill="none" opacity="1" stroke="#ff0000" stroke-linecap="round" stroke-linejoin="round" stroke-width="10" vectornator:layerName="Curve 9"/>
</g>
<g id="Layer-1" vectornator:layerName="Layer 1">
<path d="M1119.68 871.641C1119.68 808.427 1170.93 757.183 1234.14 757.183L1986.72 757.183C2049.93 757.183 2101.18 808.427 2101.18 871.641L2101.18 1483.46C2101.18 1546.67 2049.93 1597.92 1986.72 1597.92L1234.14 1597.92C1170.93 1597.92 1119.68 1546.67 1119.68 1483.46L1119.68 871.641Z" fill="#5e81ac" fill-rule="nonzero" opacity="1" stroke="#000000" stroke-linecap="butt" stroke-linejoin="round" stroke-width="45.6034" vectornator:layerName="Rectangle 1"/>
<path d="M1220.73 995.637C1220.73 965.379 1245.26 940.85 1275.51 940.85L1944.73 940.85C1974.98 940.85 1999.51 965.379 1999.51 995.637L1999.51 1437.51C1999.51 1467.76 1974.98 1492.29 1944.73 1492.29L1275.51 1492.29C1245.26 1492.29 1220.73 1467.76 1220.73 1437.51L1220.73 995.637Z" fill="#d8dee9" fill-rule="nonzero" opacity="1" stroke="#000000" stroke-linecap="butt" stroke-linejoin="round" stroke-width="45.6034" vectornator:layerName="Rectangle 2"/>
<path d="M1311.73 1009.85L1390.28 1060.27L1311.73 1110.68" fill="#ffffff" fill-opacity="0" fill-rule="nonzero" opacity="1" stroke="#000000" stroke-linecap="round" stroke-linejoin="round" stroke-width="31.1182" vectornator:layerName="Curve 4"/>
<path d="M1906.35 857.065C1927 810.585 1934.02 770.7 1931.9 738.749C1930.01 710.333 1920.87 688.192 1907.64 673.267C1894.77 658.753 1878.03 651.064 1860.29 651.064C1839.11 651.064 1821.8 660.801 1808.39 674.792C1786.04 698.11 1774.52 733.245 1773.94 754.813" fill="#ffffff" fill-opacity="0" fill-rule="nonzero" opacity="1" stroke="#000000" stroke-linecap="round" stroke-linejoin="round" stroke-width="41.0722" vectornator:layerName="Curve 3"/>
<path d="M1643.29 857.065C1663.93 810.585 1670.96 770.7 1668.84 738.749C1666.95 710.333 1657.81 688.192 1644.58 673.267C1631.71 658.753 1614.97 651.064 1597.23 651.064C1576.05 651.064 1558.74 660.801 1545.33 674.792C1522.98 698.11 1511.46 733.245 1510.88 754.813" fill="#ffffff" fill-opacity="0" fill-rule="nonzero" opacity="1" stroke="#000000" stroke-linecap="round" stroke-linejoin="round" stroke-width="41.0722" vectornator:layerName="Curve 2"/>
<path d="M1382.04 857.065C1402.69 810.585 1409.72 770.7 1407.59 738.749C1405.7 710.333 1396.57 688.192 1383.33 673.267C1370.46 658.753 1353.72 651.064 1335.98 651.064C1314.8 651.064 1297.49 660.801 1284.08 674.792C1261.74 698.11 1250.21 733.245 1249.63 754.813" fill="#ffffff" fill-opacity="0" fill-rule="nonzero" opacity="1" stroke="#000000" stroke-linecap="round" stroke-linejoin="round" stroke-width="41.0722" vectornator:layerName="Curve 1"/>
<path d="M1893.58 850.201C1893.58 838.161 1902 828.4 1912.38 828.4C1922.77 828.4 1931.19 838.161 1931.19 850.201C1931.19 862.241 1922.77 872.002 1912.38 872.002C1902 872.002 1893.58 862.241 1893.58 850.201Z" fill="#000000" fill-rule="nonzero" opacity="1" stroke="#000000" stroke-linecap="butt" stroke-linejoin="round" stroke-width="20.5152" vectornator:layerName="Oval 3"/>
<path d="M1631.22 853.298C1631.22 841.258 1639.64 831.498 1650.03 831.498C1660.42 831.498 1668.84 841.258 1668.84 853.298C1668.84 865.339 1660.42 875.099 1650.03 875.099C1639.64 875.099 1631.22 865.339 1631.22 853.298Z" fill="#000000" fill-rule="nonzero" opacity="1" stroke="#000000" stroke-linecap="butt" stroke-linejoin="round" stroke-width="20.5152" vectornator:layerName="Oval 2"/>
<path d="M1368.96 850.201C1368.96 838.161 1377.38 828.4 1387.77 828.4C1398.15 828.4 1406.58 838.161 1406.58 850.201C1406.58 862.241 1398.15 872.002 1387.77 872.002C1377.38 872.002 1368.96 862.241 1368.96 850.201Z" fill="#000000" fill-rule="nonzero" opacity="1" stroke="#000000" stroke-linecap="butt" stroke-linejoin="round" stroke-width="20.5152" vectornator:layerName="Oval 1"/>
<path d="M1448.44 1110.68L1529.87 1110.68" fill="#000000" fill-rule="nonzero" opacity="1" stroke="#000000" stroke-linecap="round" stroke-linejoin="round" stroke-width="31.2939" vectornator:layerName="Curve 5"/>
</g>
</svg>
