<svg width="1057.82" height="1014.24" xmlns="http://www.w3.org/2000/svg" xmlns:undefined="http://vectornator.io" clip-rule="evenodd" xml:space="preserve" version="1.1" stroke-miterlimit="10">

 <g>
  <title>Layer 1</title>
  <g visibility="hidden"  opacity="0.3" id="Sketch">
   <path id="svg_1"  stroke-width="10" stroke-linejoin="round" stroke-linecap="round" stroke="#ff0000" fill="none" d="m709.289,785.024c0,156.969 -11.274,315.376 -1.167,472.256c4.276,66.38 9.288,141.91 49.002,193.64c141.964,184.92 414.306,93.97 598.526,118.41c64.23,8.52 192.6,55.18 240.34,-18.11c32.88,-50.47 44.42,-121.65 56,-182.49c27.71,-145.61 38.09,-301.86 31.5,-451.363c-1.36,-30.789 -2.59,-65.813 -15.17,-93.337c-25.01,-54.75 -135.95,-68.834 -182,-73.833c-179.17,-19.448 -358.55,1.393 -537.856,1.393c-54.043,0 -106.289,2.546 -159.839,8.358c-20.457,2.221 -49.583,0.579 -64.169,20.897c-14.016,19.524 -9.334,55.826 -9.334,79.406"/>
   <path id="svg_2"  stroke-width="41.0722" stroke-linejoin="round" stroke-linecap="round" stroke="#ff0000" fill="none" d="m845.758,733.781c-12.288,-29.346 16.208,-83.365 42.002,-87.764c55.996,-9.552 85.438,46.606 88.67,104.481c1.088,19.495 -0.527,49.769 -17.501,59.903"/>
   <path id="svg_3"  stroke-width="41.0722" stroke-linejoin="round" stroke-linecap="round" stroke="#ff0000" fill="none" d="m1114.1,729.602c0,-19.044 3.24,-38.053 9.33,-55.724c47.3,-137.136 254.52,32.372 130.68,130.951"/>
   <path id="svg_4"  stroke-width="41.0722" stroke-linejoin="round" stroke-linecap="round" stroke="#ff0000" fill="none" d="m1387.11,728.209c-8.36,-29.965 6.08,-88.741 36.17,-94.73c19.73,-3.927 37.9,3.893 56,12.538c53.41,25.509 78.99,69.884 49,137.915c-7.66,17.381 -28.5,52.938 -47.83,52.938"/>
   <path id="svg_5"  stroke-width="10" stroke-linejoin="round" stroke-linecap="round" stroke="#ff0000" fill="none" d="m982.299,833.086c10.38,-17.091 -14.004,0.696 -2.334,0.696c6.524,0 -0.604,-13.931 -3.5,-13.931c-2.809,0 2.704,13.472 5.834,12.538c5.869,-1.752 1.935,-18.294 -4.667,-16.717c-4.397,1.05 0.186,22.524 7,20.896c10.576,-2.525 3.794,-29.465 -8.167,-20.896c-4.961,3.554 0.29,26.411 7,25.075c9.861,-1.962 10.816,-33.089 -3.5,-30.647c-6.563,1.119 -7.755,39.597 2.334,22.986z"/>
   <path id="svg_6"  stroke-width="10" stroke-linejoin="round" stroke-linecap="round" stroke="#ff0000" fill="none" d="m1275.14,827.513c4.71,-2.141 3.94,-22.676 -3.5,-16.02c-4.33,3.883 -0.68,28.266 7,23.682c7.67,-4.575 -3.31,-27.276 -9.33,-23.682c-6.58,3.928 -4.66,28.324 4.67,26.468c11.59,-2.308 8.26,-38.659 -4.67,-32.041c-8.18,4.186 -9.41,35.539 1.17,33.434c10.34,-2.059 14.92,-35.487 1.16,-33.434c-8.04,1.201 -14.17,29.62 3.5,21.593z"/>
   <path id="svg_7"  stroke-width="10" stroke-linejoin="round" stroke-linecap="round" stroke="#ff0000" fill="none" d="m1502.07,858.858c5.39,-3.947 8.64,-13.175 1.75,-18.111c-2.33,-1.665 -4.15,-2.721 -7,0c-6.54,6.244 3.97,30.09 9.33,23.683c6.96,-8.315 -0.73,-33.608 -11.67,-29.255c-10.27,4.089 -5.76,34.582 7,32.041c13.39,-2.665 2.85,-37.818 -11.66,-32.041c-12.65,5.035 -0.54,38.178 10.5,30.648c11.49,-7.844 2.23,-33.182 -10.5,-30.648c-8.06,1.603 -3.85,28.768 7,22.29c5.35,-3.199 2.99,-24.623 -5.84,-16.718c-9.48,8.497 -5.64,30.357 11.09,18.111z"/>
   <path id="svg_8"  stroke-width="10" stroke-linejoin="round" stroke-linecap="round" stroke="#ff0000" fill="none" d="m804.959,927.119c0,16.797 5.191,33.284 5.834,50.151c4.682,123.01 25.814,243.64 32.667,366.38c2.501,44.79 7.566,114.82 45.502,140.7c29.435,20.09 64.204,16.91 96.837,19.51c82.531,6.57 165.901,-1.3 248.511,4.18c73.41,4.87 166.89,15 239.17,-4.18c23.62,-6.27 55.16,-0.84 72.34,-26.47c23.19,-34.61 23.44,-87.06 25.67,-129.56c5.17,-98.78 11.66,-199.08 11.66,-298.12c0,-53.315 8.99,-110.876 -43.16,-129.557c-20.72,-7.418 -42.97,-3.99 -64.17,-5.572c-46.01,-3.434 -92.67,-1.393 -138.84,-1.393c-164.05,0 -327.52,18.11 -491.186,18.11"/>
   <path id="svg_9"  stroke-width="10" stroke-linejoin="round" stroke-linecap="round" stroke="#ff0000" fill="none" d="m895.962,1003.74c28.321,22.54 78.394,17.6 25.668,54.33c-7.131,4.97 -13.629,10.92 -21.001,15.32"/>
  </g>
  <g  id="Layer-1">
   <path id="svg_10"  stroke-width="45.6034" stroke-linejoin="round" stroke="#000000" fill-rule="nonzero" fill="#5e81ac" d="m37.45829,249.41908c0,-63.214 51.25,-114.458 114.46,-114.458l752.58,0c63.21,0 114.46,51.244 114.46,114.458l0,611.819c0,63.21 -51.25,114.46 -114.46,114.46l-752.58,0c-63.21,0 -114.46,-51.25 -114.46,-114.46l0,-611.819z"/>
   <path id="svg_11"  stroke-width="45.6034" stroke-linejoin="round" stroke="#000000" fill-rule="nonzero" fill="#d8dee9" d="m138.50829,373.41508c0,-30.258 24.53,-54.787 54.78,-54.787l669.22,0c30.25,0 54.78,24.529 54.78,54.787l0,441.873c0,30.25 -24.53,54.78 -54.78,54.78l-669.22,0c-30.25,0 -54.78,-24.53 -54.78,-54.78l0,-441.873z"/>
   <path id="svg_12"  stroke-width="31.1182" stroke-linejoin="round" stroke-linecap="round" stroke="#000000" fill-rule="nonzero" fill-opacity="0" fill="#ffffff" d="m229.50829,387.62808l78.55,50.42l-78.55,50.41"/>
   <path id="svg_13"  stroke-width="41.0722" stroke-linejoin="round" stroke-linecap="round" stroke="#000000" fill-rule="nonzero" fill-opacity="0" fill="#ffffff" d="m824.12829,234.84308c20.65,-46.48 27.67,-86.365 25.55,-118.316c-1.89,-28.416 -11.03,-50.557 -24.26,-65.482c-12.87,-14.514 -29.61,-22.203 -47.35,-22.203c-21.18,0 -38.49,9.737 -51.9,23.728c-22.35,23.318 -33.87,58.453 -34.45,80.021"/>
   <path id="svg_14"  stroke-width="41.0722" stroke-linejoin="round" stroke-linecap="round" stroke="#000000" fill-rule="nonzero" fill-opacity="0" fill="#ffffff" d="m561.06829,234.84308c20.64,-46.48 27.67,-86.365 25.55,-118.316c-1.89,-28.416 -11.03,-50.557 -24.26,-65.482c-12.87,-14.514 -29.61,-22.203 -47.35,-22.203c-21.18,0 -38.49,9.737 -51.9,23.728c-22.35,23.318 -33.87,58.453 -34.45,80.021"/>
   <path id="svg_15"  stroke-width="41.0722" stroke-linejoin="round" stroke-linecap="round" stroke="#000000" fill-rule="nonzero" fill-opacity="0" fill="#ffffff" d="m299.81829,234.84308c20.65,-46.48 27.68,-86.365 25.55,-118.316c-1.89,-28.416 -11.02,-50.557 -24.26,-65.482c-12.87,-14.514 -29.61,-22.203 -47.35,-22.203c-21.18,0 -38.49,9.737 -51.9,23.728c-22.34,23.318 -33.87,58.453 -34.45,80.021"/>
   <path id="svg_16"  stroke-width="20.5152" stroke-linejoin="round" stroke="#000000" fill-rule="nonzero" fill="#000000" d="m811.35829,227.97908c0,-12.04 8.42,-21.801 18.8,-21.801c10.39,0 18.81,9.761 18.81,21.801c0,12.04 -8.42,21.801 -18.81,21.801c-10.38,0 -18.8,-9.761 -18.8,-21.801z"/>
   <path id="svg_17"  stroke-width="20.5152" stroke-linejoin="round" stroke="#000000" fill-rule="nonzero" fill="#000000" d="m548.99829,231.07608c0,-12.04 8.42,-21.8 18.81,-21.8c10.39,0 18.81,9.76 18.81,21.8c0,12.041 -8.42,21.801 -18.81,21.801c-10.39,0 -18.81,-9.76 -18.81,-21.801z"/>
   <path id="svg_18"  stroke-width="20.5152" stroke-linejoin="round" stroke="#000000" fill-rule="nonzero" fill="#000000" d="m286.73829,227.97908c0,-12.04 8.42,-21.801 18.81,-21.801c10.38,0 18.81,9.761 18.81,21.801c0,12.04 -8.43,21.801 -18.81,21.801c-10.39,0 -18.81,-9.761 -18.81,-21.801z"/>
   <path id="svg_19"  stroke-width="31.2939" stroke-linejoin="round" stroke-linecap="round" stroke="#000000" fill-rule="nonzero" fill="#000000" d="m366.21829,488.45808l81.43,0"/>
  </g>
 </g>
</svg>